<svg id="Layer_1" data-name="Layer 1" xmlns="http://www.w3.org/2000/svg" viewBox="0 0 208.6 122.33"><defs><style>.cls-1{fill:#231f20;}.cls-2{fill:#fff;}</style></defs><path class="cls-1" d="M95.38,181.22,92.3,195.89H87.65l7.06-33.34h11.5c6.23,0,9.57,3.22,9.57,8.21s-2.9,7.83-7.22,8.83c1.8.7,4.45,2.6,3.27,8.27-.81,3.81-1.42,6.61-1.26,8h-4.41c-.17-1.44.17-3.95,1.09-7.92,1-4.54-.28-6.75-5.06-6.75Zm.83-3.87h6.4c5.13,0,8.38-1.74,8.38-6.11,0-3.24-2-4.82-5.74-4.82H98.51Z" transform="translate(-70.91 -160.69)"/><path class="cls-1" d="M137.47,189.35c-.48,2.18-.94,4.58-1.27,6.54h-4.37a38.92,38.92,0,0,1,.66-4,9.1,9.1,0,0,1-8.11,4.53c-4.48,0-7.31-2.66-6-8.92l3.45-16h4.41L123,187c-.66,3-.47,5.62,3.26,5.62s6.65-2.71,8-9.31l2.54-11.82h4.46Z" transform="translate(-70.91 -160.69)"/><path class="cls-1" d="M149,184.2a14.22,14.22,0,0,0-.2,2.16c0,3.82,1.77,6.13,5.1,6.13s4.92-1.87,6-3.83h4.64c-1.55,3.75-4.56,7.47-11.08,7.47-6.22,0-9.13-4.06-9.13-9.77,0-6.79,3.71-15.63,12.87-15.63,6.68,0,8.92,4.31,8.92,8.86a16.47,16.47,0,0,1-.62,4.61Zm13.21-6.63c-.27-1.45-2.47-3.21-2.95-3.78-.64.7-2.49,2.15-2.83,3.56a3.48,3.48,0,0,0,.51,3,2.77,2.77,0,0,0,4.51,0A3.59,3.59,0,0,0,162.23,177.57Z" transform="translate(-70.91 -160.69)"/><path class="cls-1" d="M171.27,171.45h4l1.5-7h4.43l-1.47,7h5.09l-.81,3.6h-5.08l-3,14.31c-.44,2.09-.33,3.16,1.75,3.16a12.57,12.57,0,0,0,2.35-.2l-.76,3.44a11.27,11.27,0,0,1-3.59.43c-4.08,0-5.22-2.07-4.36-6.17l3.15-15h-4Z" transform="translate(-70.91 -160.69)"/><path class="cls-1" d="M189.91,171.45h4.46l-5.17,24.44h-4.46Zm2.27-10.76h4.46l-1.13,5.42h-4.46Z" transform="translate(-70.91 -160.69)"/><path class="cls-1" d="M200.55,177.66c.43-2.11.86-4.17,1.22-6.21h4.37c-.08.75-.53,3.31-.7,4a9,9,0,0,1,8.05-4.44c4.69,0,7.58,2.74,6.07,9.74l-3.19,15.18h-4.44l3.17-15.1c.76-3.51,0-5.93-3.57-5.93-4.26,0-6.74,3.83-7.78,8.73l-2.6,12.3h-4.46Z" transform="translate(-70.91 -160.69)"/><path class="cls-1" d="M229.32,184.44a14.15,14.15,0,0,0-.19,2.16c0,3.82,1.76,6.13,5.09,6.13s4.92-1.87,6-3.83h4.64c-1.56,3.75-4.56,7.47-11.09,7.47-6.22,0-9.13-4.06-9.13-9.77,0-6.79,3.71-15.63,12.87-15.63,6.68,0,8.93,4.31,8.93,8.86a16.85,16.85,0,0,1-.62,4.61ZM242,181.17a8.13,8.13,0,0,0,.15-1.64c0-3.1-1.44-5-4.83-5-3.57,0-6.09,2.43-7.25,6.64Z" transform="translate(-70.91 -160.69)"/><path class="cls-1" d="M253.68,188.51c.25,2.46,1.77,4.33,5.43,4.33,3.13,0,4.7-1.52,4.7-3.72s-1.54-3.16-4.93-4.36c-5.35-1.82-7-3.71-7-6.56,0-3.93,3-7.23,9-7.23,6.43,0,8.93,3.53,8.82,7.12h-4.53c-.15-1.64-.93-3.63-4.65-3.63-2.36,0-4.16,1.11-4.16,3.22,0,1.64,1.38,2.38,4.75,3.58,5.24,1.83,7.31,3.92,7.31,7.32,0,5-4.14,7.79-10,7.79-6.27,0-9.41-3.19-9.34-7.86l-1.3-.13,3.41-4.17,3.57,4.09Z" transform="translate(-70.91 -160.69)"/><rect class="cls-1" y="50.84" width="208.6" height="71.49"/><path class="cls-2" d="M91.89,250l-3.07,14.67H84.17l7.06-33.34h11.5c6.23,0,9.57,3.21,9.57,8.21s-2.9,7.83-7.23,8.82c1.81.71,4.46,2.61,3.28,8.28-.82,3.81-1.43,6.6-1.26,8h-4.42c-.17-1.44.18-3.95,1.1-7.92,1-4.54-.29-6.75-5.07-6.75Zm.83-3.87h6.41c5.12,0,8.38-1.75,8.38-6.11,0-3.25-2-4.83-5.75-4.83H95Z" transform="translate(-70.91 -160.69)"/><path class="cls-2" d="M134,258.1c-.48,2.18-.93,4.58-1.27,6.54h-4.37a39.28,39.28,0,0,1,.67-4.05,9.12,9.12,0,0,1-8.12,4.53c-4.47,0-7.3-2.67-6-8.92l3.44-16h4.41l-3.3,15.51c-.66,3-.47,5.62,3.26,5.62s6.64-2.72,8-9.31l2.53-11.82h4.46Z" transform="translate(-70.91 -160.69)"/><path class="cls-2" d="M145.54,252.94a13.24,13.24,0,0,0-.2,2.16c0,3.83,1.76,6.14,5.09,6.14s4.92-1.88,6-3.84h4.64c-1.55,3.76-4.56,7.48-11.09,7.48-6.21,0-9.13-4.07-9.13-9.77,0-6.8,3.71-15.63,12.88-15.63,6.67,0,8.92,4.3,8.92,8.85a16.42,16.42,0,0,1-.62,4.61Zm13.21-6.63c-.28-1.44-2.47-3.21-2.95-3.78-.64.71-2.5,2.16-2.84,3.57a3.46,3.46,0,0,0,.51,3,3.07,3.07,0,0,0,2.47,1.16,3,3,0,0,0,2-1.16A3.56,3.56,0,0,0,158.75,246.31Z" transform="translate(-70.91 -160.69)"/><path class="cls-2" d="M167.78,240.2h4l1.49-7h4.44l-1.47,7h5.08l-.8,3.6H175.4l-3,14.3c-.45,2.1-.33,3.16,1.75,3.16a13.61,13.61,0,0,0,2.35-.19l-.77,3.43a10.94,10.94,0,0,1-3.58.43c-4.09,0-5.22-2.06-4.37-6.16l3.15-15h-4Z" transform="translate(-70.91 -160.69)"/><path class="cls-2" d="M186.43,240.2h4.46l-5.18,24.44h-4.46Zm2.27-10.77h4.46L192,234.85h-4.46Z" transform="translate(-70.91 -160.69)"/><path class="cls-2" d="M197.06,246.41c.43-2.12.86-4.18,1.22-6.21h4.37c-.07.75-.52,3.3-.69,4a9,9,0,0,1,8-4.43c4.68,0,7.57,2.74,6.07,9.73l-3.2,15.19h-4.44l3.17-15.1c.76-3.51,0-5.93-3.56-5.93-4.27,0-6.74,3.82-7.78,8.73l-2.61,12.3H193.2Z" transform="translate(-70.91 -160.69)"/><path class="cls-2" d="M225.84,253.18a14.46,14.46,0,0,0-.2,2.16c0,3.83,1.77,6.14,5.1,6.14s4.91-1.88,6-3.84h4.64c-1.55,3.76-4.56,7.48-11.09,7.48-6.21,0-9.12-4.07-9.12-9.77,0-6.8,3.7-15.63,12.87-15.63,6.68,0,8.92,4.3,8.92,8.85a16.42,16.42,0,0,1-.62,4.61Zm12.64-3.27a8,8,0,0,0,.15-1.64c0-3.09-1.45-5-4.84-5-3.56,0-6.09,2.43-7.25,6.64Z" transform="translate(-70.91 -160.69)"/><path class="cls-2" d="M250.2,257.26c.24,2.45,1.77,4.33,5.42,4.33,3.13,0,4.71-1.53,4.71-3.72s-1.54-3.16-4.93-4.36c-5.35-1.83-7-3.71-7-6.57,0-3.92,3-7.22,9-7.22,6.42,0,8.93,3.53,8.82,7.11h-4.53c-.16-1.64-.93-3.63-4.66-3.63-2.36,0-4.15,1.12-4.15,3.22,0,1.64,1.37,2.39,4.74,3.59,5.25,1.83,7.32,3.92,7.32,7.32,0,5-4.14,7.79-10,7.79-6.28,0-9.42-3.19-9.34-7.86l-1.3-.13,3.4-4.17,3.58,4.08Z" transform="translate(-70.91 -160.69)"/></svg>