<svg width="153" height="30" viewBox="0 0 153 30" fill="none" xmlns="http://www.w3.org/2000/svg">
<path d="M6.49638 17.2361L3.90792 29.5523H0L5.93331 1.56156H15.5981C20.8338 1.56156 23.6408 4.26492 23.6408 8.45431C23.6408 12.6437 21.2036 15.028 17.573 15.8676C19.0858 16.4553 21.3129 18.0504 20.3212 22.8107C19.6404 26.0094 19.1278 28.3602 19.2623 29.5272H15.556C15.4132 28.3182 15.6989 26.2109 16.4721 22.8779C17.3125 19.0663 16.2368 17.2109 12.2196 17.2109L6.49638 17.2361ZM7.19393 13.987H12.5726C16.8839 13.987 19.6152 12.5262 19.6152 8.8573C19.6152 6.13714 17.9344 4.81064 14.7913 4.81064H9.12688L7.19393 13.987Z" fill="#FDFBF7"/>
<path d="M41.8693 24.0617C41.4659 25.8919 41.0793 27.9069 40.802 29.5524H37.1294C37.2558 28.4241 37.4409 27.3032 37.6841 26.1942C36.9947 27.3812 35.9979 28.3608 34.7986 29.03C33.5992 29.6992 32.2416 30.0334 30.8683 29.9974C27.1033 29.9974 24.7249 27.7641 25.8259 22.5085L28.7253 9.07563H32.4315L29.7086 22.0887C29.1539 24.6074 29.3136 26.807 32.4483 26.807C35.583 26.807 38.037 24.5319 39.1716 18.9908L41.3063 9.06724H45.0545L41.8693 24.0617Z" fill="#FDFBF7"/>
<path d="M51.5592 19.738C51.4571 20.3373 51.4009 20.9436 51.3912 21.5514C51.3912 24.7585 52.8787 26.6979 55.6773 26.6979C58.4758 26.6979 59.8121 25.1279 60.7197 23.4824H64.6192C63.3166 26.6307 60.787 29.7539 55.3075 29.7539C50.0801 29.7539 47.6345 26.3453 47.6345 21.5514C47.6345 15.8509 50.7524 8.42917 58.4506 8.42917C64.0646 8.42917 65.9471 12.0477 65.9471 15.8676C65.9576 17.1759 65.7821 18.479 65.426 19.738H51.5592ZM62.6611 14.1717C62.4342 12.9544 60.5853 11.4768 60.1819 10.9982C59.644 11.5859 58.0892 12.8033 57.8035 13.987C57.6793 14.4119 57.6534 14.8593 57.7276 15.2957C57.8019 15.732 57.9744 16.1457 58.2321 16.5057C58.4475 16.8072 58.7318 17.053 59.0614 17.2226C59.391 17.3922 59.7565 17.4807 60.1273 17.4807C60.498 17.4807 60.8635 17.3922 61.1931 17.2226C61.5227 17.053 61.807 16.8072 62.0224 16.5057C62.2874 16.1832 62.4825 15.8092 62.5954 15.4075C62.7082 15.0057 62.7363 14.5849 62.6779 14.1717H62.6611Z" fill="#FDFBF7"/>
<path d="M70.2752 9.03363H73.6369L74.8975 3.15674H78.6205L77.3851 9.03363H81.6628L80.9821 12.056H76.7128L74.1916 24.0701C73.8218 25.8247 73.9142 26.7231 75.6623 26.7231C76.3244 26.7291 76.9856 26.6728 77.6372 26.5552L76.9985 29.4432C76.0188 29.725 75 29.8469 73.9814 29.8042C70.5526 29.8042 69.5945 28.0664 70.3173 24.6242L72.9646 12.0308H69.6029L70.2752 9.03363Z" fill="#FDFBF7"/>
<path d="M85.9405 9.03362H89.6888L85.3438 29.5524H81.5956L85.9405 9.03362ZM87.8483 0H91.5965L90.6468 4.55039H86.8986L87.8483 0Z" fill="#FDFBF7"/>
<path d="M94.8826 14.2473C95.244 12.4758 95.6053 10.7464 95.9079 9.03366H99.5805C99.5133 9.66332 99.1351 11.8126 98.9922 12.3919C99.6804 11.2205 100.672 10.256 101.862 9.60004C103.053 8.94405 104.399 8.62078 105.758 8.66425C109.699 8.66425 112.128 10.9646 110.859 16.8415L108.178 29.586H104.446L107.111 16.9087C107.749 13.9619 107.111 11.9301 104.11 11.9301C100.53 11.9301 98.4459 15.1456 97.5719 19.2595L95.3868 29.586H91.6386L94.8826 14.2473Z" fill="#FDFBF7"/>
<path d="M119.061 19.9395C118.962 20.539 118.908 21.1452 118.902 21.7529C118.902 24.96 120.381 26.8994 123.179 26.8994C125.978 26.8994 127.314 25.3294 128.222 23.6839H132.121C130.81 26.8322 128.289 29.9554 122.801 29.9554C117.574 29.9554 115.128 26.5468 115.128 21.7529C115.128 16.0523 118.246 8.63066 125.944 8.63066C131.558 8.63066 133.449 12.2491 133.449 16.0691C133.455 17.3771 133.28 18.6796 132.928 19.9395H119.061ZM129.718 17.1941C129.806 16.7406 129.848 16.2793 129.844 15.8173C129.844 13.2146 128.634 11.6195 125.785 11.6195C122.784 11.6195 120.666 13.6596 119.692 17.1941H129.718Z" fill="#FDFBF7"/>
<path d="M139.534 23.3565C139.744 25.4218 141.021 26.9917 144.097 26.9917C146.728 26.9917 148.047 25.7156 148.047 23.8686C148.047 22.0216 146.753 21.2156 143.904 20.2081C139.408 18.6801 138.021 17.0934 138.021 14.7006C138.021 11.4012 140.542 8.63066 145.585 8.63066C150.988 8.63066 153.09 11.5943 152.997 14.6083H149.19C149.064 13.2314 148.408 11.5607 145.282 11.5607C143.299 11.5607 141.786 12.4926 141.786 14.2641C141.786 15.6409 142.946 16.2622 145.778 17.2697C150.182 18.8061 151.921 20.5607 151.921 23.4152C151.921 27.613 148.442 29.9554 143.517 29.9554C138.248 29.9554 135.609 27.2772 135.668 23.3565L134.575 23.2473L137.441 19.7464L140.441 23.1802L139.534 23.3565Z" fill="#FDFBF7"/>
</svg>
